#!OML:ASF Y:\EmotionMaleHayes\Project 1\Capture day 1\Session 1\Male1.ASF
:FULLY-SPECIFIED
:DEGREES
488
root 7.44432 16.1401 -3.69087 -185.081 38.8962 -198.8
lowerback 27.3136 6.26145 2.9604
upperback 10.9812 10.5533 -1.11996
thorax -1.88354 6.09745 -5.78668
lowerneck -10.0841 -12.4294 -3.89881
upperneck 6.39753 -16.3834 3.43409
head 4.12303 -8.02318 0.518974
rclavicle 2.54444e-014 -2.8625e-014
rhumerus 42.6433 38.005 -64.014
rradius 72.1897
rwrist -4.25146
rhand -17.6198 -21.5265
rfingers 7.12502
rthumb 8.63723 -51.3299
lclavicle 2.54444e-014 -2.8625e-014
lhumerus -66.1559 20.3444 23.8448
lradius 25.516
lwrist 29.8242
lhand -31.2893 -18.002
lfingers 7.12502
lthumb -4.56246 11.9289
rfemur -14.8471 -22.5403 32.557
rtibia 36.3018
rfoot -18.7872 -7.08276
rtoes 29.0172
lfemur -58.2268 17.6611 -32.7385
ltibia 58.6519
lfoot 0.657792 -17.4916
ltoes -13.49
489
root 7.75537 16.1511 -3.71081 -184.447 38.7258 -197.698
lowerback 27.2382 6.24387 2.91667
upperback 10.7958 10.4929 -1.33682
thorax -2.02531 6.05734 -5.99027
lowerneck -10.05 -12.3285 -4.14751
upperneck 7.01846 -16.2061 3.23159
head 4.30618 -7.94129 0.486746
rclavicle -2.54444e-014 -4.13472e-014
rhumerus 38.3114 36.8716 -68.6963
rradius 67.4826
rwrist -3.50186
rhand -18.5525 -22.5056
rfingers 7.12502
rthumb 7.73712 -52.344
lclavicle -2.54444e-014 -4.13472e-014
lhumerus -64.4964 20.0221 29.2333
lradius 25.3766
lwrist 30.0952
lhand -30.6305 -18.3687
lfingers 7.12502
lthumb -3.92632 11.5749
rfemur -14.3777 -23.5467 33.3369
rtibia 37.416
rfoot -16.1163 -5.30316
rtoes 27.1142
lfemur -58.0446 17.8043 -35.4168
ltibia 55.8373
lfoot 4.56481 -17.2782
ltoes -5.19448
490
root 8.06884 16.1633 -3.73535 -183.789 38.5616 -196.494
lowerback 27.0912 6.27362 2.77159
upperback 10.6431 10.4719 -1.37809
thorax -2.14754 6.02712 -5.94685
lowerneck -10.4328 -12.208 -4.17386
upperneck 7.91805 -15.9648 2.56294
head 4.58378 -7.83831 0.260273
rclavicle 2.22639e-014 -1.90833e-014
rhumerus 34.2211 35.1963 -73.3202
rradius 62.2838
rwrist -2.6798
rhand -19.7459 -22.611
rfingers 7.12502
rthumb 6.5851 -52.4886
lclavicle 2.22639e-014 -1.90833e-014
lhumerus -62.7145 19.6533 34.7165
lradius 25.2401
lwrist 29.6626
lhand -30.214 -18.8476
lfingers 7.12502
lthumb -3.52416 11.103
rfemur -13.9272 -24.3483 34.0277
rtibia 38.5581
rfoot -12.8155 -3.33482
rtoes 27.0281
lfemur -57.5616 17.9153 -37.7342
ltibia 53.2035
lfoot 7.15487 -16.2307
ltoes -1.3031
491
root 8.38685 16.169 -3.7598 -183.249 38.3654 -195.484
lowerback 26.8737 6.32695 2.54977
upperback 10.5037 10.4621 -1.5351
thorax -2.20876 6.00969 -5.97589
lowerneck -10.9018 -12.1335 -4.1525
upperneck 8.53116 -15.8149 2.18345
head 4.81191 -7.77053 0.107735
rclavicle 5.08889e-014 -3.65764e-014
rhumerus 30.5309 32.8515 -77.9363
rradius 56.6561
rwrist -2.29739
rhand -20.1419 -22.3676
rfingers 7.12502
rthumb 6.20287 -52.2568
lclavicle 5.08889e-014 -3.65764e-014
lhumerus -60.6289 18.7899 40.279
lradius 25.5789
lwrist 28.9947
lhand -30.0588 -19.4315
lfingers 7.12502
lthumb -3.37422 10.5215
rfemur -13.5163 -24.8957 34.4593
rtibia 39.7642
rfoot -8.90963 -1.18816
rtoes 28.8832
lfemur -56.878 17.9046 -39.9672
ltibia 50.7831
lfoot 9.48171 -15.5016
ltoes 0.418574
492
root 8.70895 16.1635 -3.78777 -182.91 38.2861 -194.796
lowerback 26.5817 6.43702 2.07126
upperback 10.308 10.446 -1.88842
thorax -2.30036 5.98383 -6.06981
lowerneck -11.2259 -11.9735 -3.83799
upperneck 8.82586 -15.6026 1.82972
head 4.89646 -7.67093 -0.0497114
rclavicle 1.51076e-013 -4.92986e-014
rhumerus 28.0756 31.2292 -80.7382
rradius 50.6028
rwrist -4.37021
rhand -22.4231 -23.2287
rfingers 7.12502
rthumb 4.00017 -53.1709
lclavicle 1.51076e-013 -4.92986e-014
lhumerus -58.3744 17.5396 45.4057
lradius 26.0515
lwrist 28.3853
lhand -30.2999 -19.8851
lfingers 7.12502
lthumb -3.60705 10.0641
rfemur -13.1795 -25.2621 34.4936
rtibia 41.1498
rfoot -4.44079 0.888548
rtoes 29.0871
lfemur -56.0228 17.8137 -42.0694
ltibia 48.702
lfoot 11.7406 -14.5551
ltoes 2.89952
493
root 9.03263 16.149 -3.82455 -182.42 38.304 -193.835
lowerback 26.227 6.52999 1.75687
upperback 10.0311 10.4316 -2.27214
thorax -2.41711 5.95554 -6.28395
lowerneck -11.3525 -11.7289 -3.29848
upperneck 8.93679 -15.3361 1.58299
head 4.88386 -7.53786 -0.182889
rclavicle 2.06736e-014 -1.90833e-014
rhumerus 25.1599 27.8068 -85.5673
rradius 44.2884
rwrist -4.71313
rhand -22.8651 -23.6516
rfingers 7.12502
rthumb 3.57341 -53.6014
lclavicle 2.06736e-014 -1.90833e-014
lhumerus -55.9543 15.8684 50.1183
lradius 26.3725
lwrist 28.1973
lhand -30.823 -21.3797
lfingers 7.12502
lthumb -4.11225 8.56033
rfemur -12.8909 -25.5863 34.6092
rtibia 42.7206
rfoot 0.757528 2.9684
rtoes 32.857
lfemur -55.0878 17.5767 -43.4449
ltibia 47.2391
lfoot 13.2839 -12.8753
ltoes 8.2585
494
root 9.3582 16.1225 -3.86935 -181.739 38.2646 -192.655
lowerback 25.5461 6.40515 1.39687
upperback 9.82276 10.131 -2.46144
thorax -2.38345 5.78152 -6.13691
lowerneck -11.7092 -11.4228 -3.51496
upperneck 9.2541 -14.8919 1.6118
head 5.04989 -7.31712 -0.140606
rclavicle -6.36111e-015 -8.11041e-014
rhumerus 22.8425 24.9497 -89.1823
rradius 38.2039
rwrist -5.39201
rhand -22.9305 -24.9173
rfingers 7.12502
rthumb 3.5102 -54.8681
lclavicle -6.36111e-015 -8.11041e-014
lhumerus -54.1377 15.0329 53.9103
lradius 26.8705
lwrist 28.2681
lhand -30.7214 -21.785
lfingers 7.12502
lthumb -4.01407 8.15696
rfemur -12.6134 -25.8213 34.8079
rtibia 44.2525
rfoot 6.61983 4.87962
rtoes 36.9004
lfemur -54.0817 16.8817 -44.0974
ltibia 46.3787
lfoot 13.9831 -11.6997
ltoes 12.6394
495
root 9.69239 16.0817 -3.91798 -181.239 38.2712 -191.675
lowerback 24.7662 6.42473 0.86684
upperback 9.649 9.9878 -2.58659
thorax -2.28175 5.682 -5.84944
lowerneck -12.1288 -11.318 -3.98555
upperneck 9.63307 -14.6715 1.67196
head 5.27108 -7.21063 -0.0778543
rclavicle 1.98785e-014 0
rhumerus 20.6128 21.453 -92.0716
rradius 32.5348
rwrist -5.70547
rhand -23.0923 -25.9938
rfingers 7.12502
rthumb 3.35398 -55.9472
lclavicle 1.98785e-014 0
lhumerus -52.2192 14.1849 57.4054
lradius 27.3188
lwrist 28.3626
lhand -30.6267 -22.4278
lfingers 7.12502
lthumb -3.9227 7.51581
rfemur -12.1909 -25.7966 34.6952
rtibia 45.6748
rfoot 12.8339 5.63798
rtoes 41.1669
lfemur -52.7214 15.8133 -44.1941
ltibia 45.6513
lfoot 13.676 -8.83366
ltoes 14.5559
496
root 10.0265 16.0239 -3.97133 -180.662 38.2959 -190.293
lowerback 24.2738 6.53902 0.85726
upperback 9.35438 10.0728 -2.70586
thorax -2.34039 5.69692 -5.94749
lowerneck -12.5281 -11.3837 -4.19654
upperneck 10.0355 -14.7227 1.71049
head 5.48248 -7.23095 -0.0808712
rclavicle 4.29375e-014 -4.13472e-014
rhumerus 18.015 15.468 -95.4153
rradius 27.3542
rwrist -3.10535
rhand -21.827 -25.598
rfingers 7.12502
rthumb 4.57584 -55.5286
lclavicle 4.29375e-014 -4.13472e-014
lhumerus -50.0252 12.9336 60.3532
lradius 27.5993
lwrist 28.4494
lhand -30.0587 -23.2576
lfingers 7.12502
lthumb -3.37414 6.69543
rfemur -11.5522 -25.636 34.7989
rtibia 47.2409
rfoot 18.3834 4.64666
rtoes 42.6446
lfemur -50.8594 14.2967 -43.1372
ltibia 44.7631
lfoot 14.1025 -8.1768
ltoes 10.4704
497
root 10.3619 15.9492 -4.02772 -179.981 38.3599 -188.343
lowerback 23.9632 6.5896 1.21277
upperback 9.00515 10.152 -2.79524
thorax -2.49107 5.71147 -6.24232
lowerneck -12.9717 -11.3099 -3.93177
upperneck 10.3987 -14.6672 1.68136
head 5.64618 -7.18811 -0.160031
rclavicle 1.06549e-013 -7.63333e-014
rhumerus 15.1612 8.61747 -98.3566
rradius 23.4529
rwrist 1.60265
rhand -22.7686 -26.2921
rfingers 7.12502
rthumb 3.6666 -56.2403
lclavicle 1.06549e-013 -7.63333e-014
lhumerus -47.8445 11.2184 62.8342
lradius 27.9288
lwrist 29.6038
lhand -29.4336 -23.9742
lfingers 7.12502
lthumb -2.7705 5.98759
rfemur -10.5962 -25.2701 35.3139
rtibia 49.1841
rfoot 21.8194 2.32225
rtoes 44.3487
lfemur -48.5804 12.5204 -40.9882
ltibia 43.8
lfoot 15.5476 -7.09417
ltoes 16.5134
